
  <svg
    width="16"
    height="24"
    viewBox="0 0 16 24"
    fill="none"
    xmlns="http://www.w3.org/2000/svg"
  >
    <path
      d="M14 9.375V6.75C14 5.1587 13.3679 3.63258 12.2426 2.50736C11.1174 1.38214 9.5913 0.75 8 0.75C6.4087 0.75 4.88258 1.38214 3.75736 2.50736C2.63214 3.63258 2 5.1587 2 6.75V9.375H0.125V15.375C0.125 19.7173 3.65769 23.25 8 23.25C12.3423 23.25 15.875 19.7173 15.875 15.375V9.375H14ZM3.5 6.75C3.5 5.55653 3.97411 4.41193 4.81802 3.56802C5.66193 2.72411 6.80653 2.25 8 2.25C9.19347 2.25 10.3381 2.72411 11.182 3.56802C12.0259 4.41193 12.5 5.55653 12.5 6.75V9.375H3.5V6.75ZM14.375 15.375C14.375 18.8902 11.5152 21.75 8 21.75C4.48484 21.75 1.625 18.8902 1.625 15.375V10.875H14.375V15.375Z"
      fill="black"
    />
  </svg>
